<?xml version="1.0" encoding="UTF-8"?>
<svg id="Ebene_1" data-name="Ebene 1" xmlns="http://www.w3.org/2000/svg" version="1.1" viewBox="0 0 182.5 152.9">
  <defs>
    <style>
      .cls-1 {
        fill: #1d1d1b;
      }

      .cls-1, .cls-2 {
        stroke-width: 0px;
      }

      .cls-2 {
        fill: #fff;
      }
    </style>
  </defs>
  <g>
    <path class="cls-1" d="M182.5,31.8V9.8C182.5,4.4,178.1,0,172.7,0h-25.6c-1.8,0-3.7.5-5.3,1.4l-5.1,3.1C134.9,1.8,131.9,0,128.4,0c0,0-29.8,0-29.8,0h0c-3.2,0-6.2,1.7-7.9,4.3l-14.8,22c-2,3-2.2,6.9-.5,10.1,1.7,3.2,5,5.2,8.7,5.2h24.4c3.3,0,6.3-1.6,8.1-4.3h0c1.8,2.6,4.8,4.3,8.2,4.3h3.6c3.5,0,6.5-1.8,8.3-4.5l5.1,3.1c1.6,1,3.3,1.4,5.1,1.4h25.8c5.4,0,9.8-4.4,9.8-9.8"/>
    <path class="cls-1" d="M131.7,89.9c0-3.2,1.8-5.4,3.7-5.4h1.1c2.1,0,3.7,2.2,3.7,5.4s-1.6,5.4-3.7,5.4h-1.1c-1.9,0-3.7-2.2-3.7-5.4M128.3,89.9c0,4.6,2.7,8.2,6.7,8.2h.8c1.1,0,2.3-.6,3.1-1.3l1,.3v.7h3.3v-22.2h-3.3v6.7l-1.1.4c-.9-.7-1.9-1.2-3-1.2h-.9c-4,0-6.7,3.6-6.7,8.2M115.8,97.9v-8.6c0-2.5,1.4-4.7,3.4-4.7h1.2c1.6,0,2.7,1.6,2.7,3.6v9.7h3.3v-10.1c0-3.5-2.2-6.1-5-6.1h-1.3c-1.3,0-2.4.6-3.2,1.4l-1.1-.3v-.9h-3.3v16h3.3ZM115.5,141.7c.6-1.6,1.8-2.6,3.1-2.6h1.1c1.4,0,2.6,1.1,2.9,2.6l-.8,1h-5.6l-.8-1.1ZM111.6,144.6c0,4.7,2.9,8.2,6.9,8.2h1.2c3.3,0,6-2.4,6.3-5.5h-3.2c-.3,1.5-1.5,2.7-3.1,2.7h-1.2c-2,0-3.1-1.9-3.4-3.7l.8-1h10.2c0-.3,0-.7,0-1.2,0-4.3-2.7-7.7-6.5-7.7h-1.3c-3.4,0-6.8,3.1-6.8,8.2M106,91.1h0c0,2.9-2,4.3-4.3,4.3s-2.4-.7-2.4-2,1.4-2.2,3.1-2.5l2.7-.5.9.6ZM106,87l-.9,1-3.5.5c-3.1.5-5.7,1.8-5.7,5.1s2.3,4.5,5.3,4.5,3-.4,4.2-1.4l.8.2v.9h3.1v-10.2c0-3.5-2.3-6-5.9-6h-1.2c-3.4,0-6,2.4-6.2,5.4h3.4c.1-1.7,1.2-2.6,2.8-2.6h1.2c1.5,0,2.4,1.2,2.6,2.5M98.6,130.4h-3.3v22.2h3.3v-8.6c0-2.5,1.4-4.7,3.4-4.7h1.2c1.6,0,2.7,1.6,2.7,3.6v9.7h3.3v-10.1c0-3.5-2.2-6.1-5-6.1h-1.3c-1.3,0-2.4.6-3.2,1.4l-1.1-.3v-7.1ZM80.7,78v3.1l-.8.8h-2.5v2.8h2.5l.8.8v8c0,3,1.5,4.3,4.2,4.3h3.7v-2.8h-2.8c-1,0-1.7-.5-1.7-1.9v-7.7l.8-.8h3.9v-2.8h-3.9l-.8-.8v-4.7l-3.3,1.6ZM64.8,106.4h3.7v-3.3h-3.7v3.3ZM68.3,109.3h-3.4v16h3.4v-16ZM70.5,81.9h-3.4v16h3.4v-9c0-1.8,1.1-4.2,3.1-4.2h2.2v-2.8h-1.9c-1.2,0-1.9.3-2.5,1.1l-.9-.3v-.8ZM81,118.4h0c0,2.9-2,4.3-4.3,4.3s-2.4-.7-2.4-2,1.4-2.2,3.1-2.5l2.7-.5.9.6ZM77.2,109c-3.4,0-6,2.4-6.2,5.4h3.4c.1-1.7,1.2-2.6,2.8-2.6h1.2c1.5,0,2.4,1.2,2.6,2.5l-.9,1-3.5.5c-3.1.5-5.7,1.8-5.7,5.1s2.3,4.5,5.3,4.5,3-.4,4.1-1.4l.8.2v.9h3.1v-10.2c0-3.5-2.3-6-5.9-6h-1.2ZM86.7,54.5h-3.4v16h3.4v-9c0-1.8,1.1-4.2,3.1-4.2h2.2v-2.8h-1.9c-1.2,0-1.9.3-2.5,1.1l-1-.3v-.8ZM81.4,136.6h-3.3v10.1c0,3.5,2.2,6.1,5,6.1h1.3c1.3,0,2.4-.6,3.2-1.4l1.1.3v.9h3.3v-16h-3.3v8.6c0,2.5-1.4,4.7-3.4,4.7h-1.2c-1.6,0-2.7-1.6-2.7-3.6v-9.7ZM71.5,136.6h-3.4v16h3.4v-9c0-1.8,1.1-4.2,3.1-4.2h2.2v-2.8h-1.9c-1.2,0-1.9.3-2.5,1.1l-.9-.3v-.8ZM56.3,147.9h-3.3c0,3,2.8,4.9,5.9,4.9h1.3c2.7,0,5.5-1.6,5.5-5.2s-1.7-3.8-4.1-4.3l-3.1-.6c-1.3-.3-1.8-1-1.8-1.9s.9-1.8,2-1.8h1.1c1.1,0,2.1.9,2.2,2h3.2c0-2.8-2.6-4.7-5.4-4.7h-1.3c-2.8,0-5.3,1.9-5.3,4.9s1.4,3.8,4,4.3l3,.6c1.4.3,2,.8,2,2s-1.1,2-2.3,2h-1.1c-1.3,0-2.4-.9-2.6-2.2M58.4,117.2c0,3.2-1.6,5.4-3.7,5.4h-1.1c-1.9,0-3.7-2.2-3.7-5.4s1.8-5.4,3.7-5.4h1.1c2.1,0,3.7,2.2,3.7,5.4M58.2,103v6.7l-1.1.4c-.9-.7-1.9-1.2-3-1.2h-.9c-4,0-6.7,3.6-6.7,8.2s2.7,8.2,6.7,8.2h.8c1.1,0,2.3-.6,3.1-1.3l1,.3v.7h3.3v-22.2h-3.3ZM49.3,130.4h-3.3v18.5c0,2.3,1.1,3.7,3.7,3.7h2.4v-2.8h-1.6c-.9,0-1.2-.5-1.2-1.3v-18ZM52.5,86.8l3.5-5.3h1l1.6,5.4-.7.7h-5l-.4-.9ZM41.4,97.9h3.8l4.1-6.2,1.8-1h7.9l1,1,1.7,6.1h3.7l-6.3-22.2h-2.9l-14.7,22.2ZM42.4,70.5v-8.6c0-2.5,1.4-4.7,3.4-4.7h1.2c1.6,0,2.7,1.6,2.7,3.6v9.7h3.3v-10.1c0-3.5-2.2-6.1-5-6.1h-1.3c-1.3,0-2.4.6-3.2,1.4l-1.1-.3v-.9h-3.3v16h3.3ZM39.3,136.6h-3.4v16h3.4v-9c0-1.8,1.1-4.2,3.1-4.2h2.2v-2.8h-1.9c-1.2,0-1.9.3-2.5,1.1l-1-.3v-.8ZM22.8,148.1c0-1.8,1.9-2.2,3.1-2.4l2.7-.5.9.6h0c0,2.9-2,4.3-4.2,4.3s-2.5-.7-2.5-2.1M19.4,148.3c0,3,2.3,4.6,5.2,4.6s2.9-.4,4.1-1.3l.9.3v.8h3.1v-10.2c0-3.5-2.3-6-5.9-6h-1.2c-3.4,0-6,2.4-6.2,5.4h3.4c.1-1.7,1.2-2.6,2.8-2.6h1.2c1.5,0,2.5,1.2,2.6,2.6l-.8.9-3.5.6c-3.1.5-5.7,1.8-5.7,5M5.9,130.4h-3.6v22.2h3.6v-7.7l1.1-.6,7.8,8.4h4.6l-8.4-9.2,8.7-13h-4l-6.4,9.8h-1.4l-2-2.2v-7.6ZM7.7,103H2v22.2h3.5v-14.7h.9l4.1,14.7h2.9l9.7-14.7,1.1.3v14.4s3.5,0,3.5,0v-22.2h-3.7l-10.7,16.2h-.9l-4.7-16.2ZM25.8,59.6c.6-1.6,1.8-2.6,3.1-2.6h1.1c1.4,0,2.6,1.1,2.9,2.6l-.8,1h-5.6l-.8-1.1ZM25.4,64.2l.8-1h10.2c0-.3,0-.7,0-1.3,0-4.2-2.7-7.6-6.5-7.6h-1.3c-3.4,0-6.8,3.2-6.8,8.2s2.9,8.3,6.9,8.3h1.2c3.3,0,6-2.4,6.3-5.5h-3.2c-.3,1.5-1.5,2.7-3.1,2.7h-1.2c-2,0-3.1-1.9-3.4-3.7M23.1,89.9c0,3.1-1.6,5.4-3.6,5.4h-1.1c-2,0-3.6-2.2-3.6-5.4s1.6-5.4,3.6-5.4h1.1c2,0,3.6,2.3,3.6,5.4M19.5,81.6h-1.2c-4,0-7,3.5-7,8.2s3,8.2,7,8.2h1.2c4,0,7-3.5,7-8.2s-3-8.2-7-8.2M2.5,81.9H0v2.8h2.4l.8.8v12.4h3.3v-12.4l.8-.8h4.1v-2.8h-4l-.8-.8v-1c0-1.3.6-1.8,1.7-1.8h2.8v-2.6h-3.6c-2.7,0-4.2,1.6-4.2,4.4v1.1l-.7.7ZM6.7,37.8l9.9-15v-3.1H1.2v3.1h10.2l.5.9L1.9,38.7v3.1h14.4v-3.1H7.2l-.5-1ZM20.2,56.3c-.4-4.6-3.7-8.2-8.2-8.2h-1.7c-4.5,0-9.4,4-9.4,11.3s4.7,11.3,9.3,11.3h1.6c4.1,0,7.9-3.6,8.3-8.2h-3.5c-.3,2.8-2.4,5.1-4.8,5.1h-1.6c-2.9,0-5.7-3.1-5.7-8.2s2.9-8.2,5.8-8.2h1.7c2.3,0,4.4,2.2,4.7,5.1h3.5ZM28.2,32.6l8.6-12.9h-3.9l-6.5,9.8h-1.3l-2-2.2v-7.6h-3.6v22.2h3.6v-7.7l1.1-.6,7.7,8.3h4.8l-8.5-9.3ZM35.2,84.7h2.2v-2.8h-1.9c-1.2,0-1.9.3-2.5,1.1l-.9-.3v-.8h-3.4v16h3.4v-9c0-1.8,1.1-4.2,3.1-4.2M41.2,114.3l-.8,1h-5.6l-.8-1.1c.6-1.6,1.8-2.6,3.1-2.6h1.1c1.4,0,2.6,1.1,2.9,2.6M38.3,109h-1.3c-3.4,0-6.8,3.2-6.8,8.2s2.9,8.3,6.9,8.3h1.2c3.3,0,6-2.4,6.3-5.5h-3.2c-.3,1.5-1.5,2.7-3.1,2.7h-1.2c-2,0-3.1-1.9-3.4-3.7l.8-1h10.2c0-.3,0-.7,0-1.3,0-4.2-2.7-7.6-6.5-7.6M59.2,41.8h3.5v-22.2h-3.5l-9.8,14.8h-1l-4.2-14.7h-5.7s0,22.1,0,22.1h3.5v-14.7h.9l4.1,14.7h1.3l9.9-15,.9.5v14.4ZM61.6,57.4h3.9v-2.8h-3.9l-.8-.8v-4.7l-3.3,1.6v3.1l-.8.8h-2.5v2.8h2.5l.8.8v8c0,3,1.5,4.3,4.2,4.3h3.7v-2.8h-2.8c-1,0-1.7-.5-1.7-1.9v-7.7l.8-.8ZM73.1,57h1.1c1.4,0,2.6,1.1,2.9,2.6l-.8,1h-5.6l-.8-1.1c.6-1.6,1.8-2.6,3.1-2.6M74.3,54.3h-1.3c-3.4,0-6.8,3.2-6.8,8.2s2.9,8.3,6.9,8.3h1.2c3.3,0,6-2.4,6.3-5.5h-3.2c-.3,1.5-1.5,2.7-3.1,2.7h-1.2c-2,0-3.1-1.9-3.4-3.7l.8-1h10.2c0-.3,0-.7,0-1.3,0-4.2-2.7-7.6-6.5-7.6"/>
  </g>
  <path class="cls-2" d="M172.4,31.8h-3.5V9.8h3.5v22ZM163.9,31.8h-3.5V9.8h3.5v22ZM155.3,31.8h-3.5V9.8h3.5v22ZM146.7,31.8l-15.1-9.1v-3.7l15.1-9.1v4l-11.2,6.7v.7l11.2,6.6v4ZM128.5,31.8h-3.5V9.8h3.5v22ZM122.1,9.8l-14.8,22h-4.1l14.8-22h4.1ZM112.5,9.8l-14.8,22h-4.1l14.8-22h4.1ZM103,9.8l-14.8,22h-4.1l14.8-22h4.1Z"/>
</svg>